<svg xmlns="http://www.w3.org/2000/svg" width="1600" height="1000" viewBox="0 0 1600 1000" role="img"><title>Employment and economic data</title><desc>Original editorial illustration; symbolic, not a photograph or data visualization.</desc><rect width="1600" height="1000" fill="#f3eee4"/><path d="M0 760H1600M0 820H1600M0 880H1600" stroke="#d8d1c4" stroke-width="2"/><circle cx="1260" cy="185" r="245" fill="#b04a32" opacity=".10"/><rect x="88" y="86" width="85" height="12" fill="#b04a32"/><text x="88" y="139" font-family="sans-serif" font-weight="700" font-size="25" letter-spacing="5" fill="#252b2d">GLOBAL BOLE / NEWS</text><text x="88" y="912" font-family="monospace" font-size="22" letter-spacing="3" fill="#656762">BUSINESS / EDITORIAL ILLUSTRATION</text><g fill="#2b454b"><circle cx="395" cy="406" r="66"/><path d="M284 722V575Q284 500 395 500T506 575V722Z"/><circle cx="800" cy="406" r="66"/><path d="M689 722V575Q689 500 800 500T911 575V722Z"/></g><g fill="#b04a32"><circle cx="1205" cy="406" r="66"/><path d="M1094 722V575Q1094 500 1205 500T1316 575V722Z"/></g><path d="M216 775H1384" stroke="#2b454b" stroke-width="9"/><g fill="none" stroke="#bfbfb4" stroke-width="4"><rect x="298" y="233" width="194" height="34" rx="17"/><rect x="703" y="233" width="194" height="34" rx="17"/><rect x="1108" y="233" width="194" height="34" rx="17"/></g><g fill="#fffdf7"><rect x="337" y="565" width="116" height="72" rx="8"/><rect x="742" y="565" width="116" height="72" rx="8"/><rect x="1147" y="565" width="116" height="72" rx="8"/></g></svg>